<svg xmlns="http://www.w3.org/2000/svg" version="1.1" xmlns:xlink="http://www.w3.org/1999/xlink" xmlns:svgjs="http://svgjs.dev/svgjs" width="1000" height="308" viewBox="0 0 1000 308"><g transform="matrix(1,0,0,1,-0.6060606060606801,-0.5299213287545683)"><svg viewBox="0 0 396 122" data-background-color="#ffffff" preserveAspectRatio="xMidYMid meet" height="308" width="1000" xmlns="http://www.w3.org/2000/svg" xmlns:xlink="http://www.w3.org/1999/xlink"><g id="tight-bounds" transform="matrix(1,0,0,1,0.24000000000003752,0.20990390294824124)"><svg viewBox="0 0 395.5199999999999 121.58019219410352" height="121.58019219410352" width="395.5199999999999"><g><svg viewBox="0 0 599.3629217760532 184.24013759999997" height="121.58019219410352" width="395.5199999999999"><g transform="matrix(1,0,0,1,201.86532177605332,33.90778974483776)"><svg viewBox="0 0 397.4975999999999 116.42455811032445" height="116.42455811032445" width="397.4975999999999"><g id="textblocktransform"><svg viewBox="0 0 397.4975999999999 116.42455811032445" height="116.42455811032445" width="397.4975999999999" id="textblock"><g><rect width="397.4975999999999" height="6.732820355252382" x="0" y="82.59027396621869" fill="#6f605b" opacity="1" stroke-width="0" stroke="transparent" fill-opacity="1" class="rect-o-0" data-fill-palette-color="primary" rx="1%" id="o-0" data-palette-color="#6f605b"></rect></g><g transform="matrix(1,0,0,1,0.9887999999999693,0)"><svg viewBox="0 0 395.52 74.65894108699467" height="74.65894108699467" width="395.52"><g transform="matrix(1,0,0,1,0,0)"><svg width="395.52" viewBox="0.05000000447034836 -35.349998474121094 189.90220642089844 35.849998474121094" height="74.65894108699467" data-palette-color="#6f605b"><path d="M12.65 0L7 0Q6.8 0 6.8-0.25L6.8-0.25 6.8-28.75 0.3-28.75Q0.05-28.75 0.05-29L0.05-29 0.1-34.6Q0.1-34.8 0.3-34.8L0.3-34.8 19.3-34.8Q19.55-34.8 19.55-34.6L19.55-34.6 19.55-29Q19.55-28.75 19.35-28.75L19.35-28.75 12.8-28.75 12.85-0.25Q12.85 0 12.65 0L12.65 0ZM27.85 0L22.2 0Q22 0 22-0.25L22-0.25 22.1-34.6Q22.1-34.8 22.3-34.8L22.3-34.8 32.4-34.8Q35.1-34.8 37.37-33.48 39.65-32.15 41-29.93 42.35-27.7 42.35-24.9L42.35-24.9Q42.35-23.05 41.8-21.58 41.25-20.1 40.5-19.07 39.75-18.05 39.15-17.55L39.15-17.55Q41.85-14.55 41.85-10.5L41.85-10.5 41.9-0.25Q41.9 0 41.65 0L41.65 0 36 0Q35.8 0 35.8-0.15L35.8-0.15 35.8-10.5Q35.8-12.3 34.52-13.63 33.25-14.95 31.4-14.95L31.4-14.95 28.1-14.95 28.05-0.25Q28.05 0 27.85 0L27.85 0ZM28.1-28.8L28.1-20.95 32.4-20.95Q33.95-20.95 35.15-22.1 36.35-23.25 36.35-24.9L36.35-24.9Q36.35-26.5 35.17-27.65 34-28.8 32.4-28.8L32.4-28.8 28.1-28.8ZM55.3 0.5L55.3 0.5Q52.64 0.5 50.39-0.88 48.14-2.25 46.82-4.55 45.49-6.85 45.49-9.6L45.49-9.6 45.59-34.6Q45.59-34.8 45.8-34.8L45.8-34.8 51.39-34.8Q51.59-34.8 51.59-34.6L51.59-34.6 51.59-9.6Q51.59-7.9 52.67-6.73 53.74-5.55 55.3-5.55L55.3-5.55Q56.89-5.55 57.97-6.73 59.05-7.9 59.05-9.6L59.05-9.6 59.05-34.6Q59.05-34.8 59.24-34.8L59.24-34.8 64.84-34.8Q65.05-34.8 65.05-34.6L65.05-34.6 65.14-9.6Q65.14-6.8 63.82-4.5 62.5-2.2 60.27-0.85 58.05 0.5 55.3 0.5ZM78.29 0.5L78.29 0.5Q75.54 0.5 73.32-0.88 71.09-2.25 69.79-4.55 68.49-6.85 68.49-9.7L68.49-9.7 68.54-25.3Q68.54-28.05 69.82-30.33 71.09-32.6 73.32-33.98 75.54-35.35 78.29-35.35L78.29-35.35Q81.04-35.35 83.24-34 85.44-32.65 86.74-30.38 88.04-28.1 88.04-25.3L88.04-25.3 88.04-23Q88.04-22.8 87.84-22.8L87.84-22.8 82.24-22.8Q82.04-22.8 82.04-23L82.04-23 82.04-25.3Q82.04-26.95 80.97-28.15 79.89-29.35 78.29-29.35L78.29-29.35Q76.49-29.35 75.54-28.13 74.59-26.9 74.59-25.3L74.59-25.3 74.59-9.7Q74.59-7.85 75.67-6.7 76.74-5.55 78.29-5.55L78.29-5.55Q79.89-5.55 80.97-6.83 82.04-8.1 82.04-9.7L82.04-9.7 82.04-12Q82.04-12.2 82.24-12.2L82.24-12.2 87.89-12.2Q88.09-12.2 88.09-12L88.09-12 88.09-9.7Q88.09-6.85 86.77-4.55 85.44-2.25 83.24-0.88 81.04 0.5 78.29 0.5ZM97.59 0L91.94 0Q91.74 0 91.74-0.25L91.74-0.25 91.84-34.55Q91.84-34.8 92.04-34.8L92.04-34.8 97.64-34.8Q97.84-34.8 97.84-34.55L97.84-34.55 97.84-22.7 105.69-34.6Q105.84-34.8 106.04-34.8L106.04-34.8 111.79-34.8Q111.99-34.8 111.89-34.6L111.89-34.6 103.24-20.8 112.94-0.2Q113.04 0 112.69 0L112.69 0 106.59 0Q106.34 0 106.29-0.2L106.29-0.2 99.54-14.9 97.79-12.15 97.79-0.25Q97.79 0 97.59 0L97.59 0ZM131.54 0L115.39 0Q115.19 0 115.19-0.25L115.19-0.25 115.24-34.55Q115.24-34.8 115.49-34.8L115.49-34.8 121.04-34.8Q121.29-34.8 121.29-34.55L121.29-34.55 121.24-6.15 131.54-6.15Q131.79-6.15 131.79-5.9L131.79-5.9 131.79-0.25Q131.79 0 131.54 0L131.54 0ZM140.94 0L135.29 0Q135.04 0 135.04-0.25L135.04-0.25 135.09-34.6Q135.09-34.8 135.29-34.8L135.29-34.8 140.89-34.8Q141.09-34.8 141.09-34.6L141.09-34.6 141.14-0.25Q141.14 0 140.94 0L140.94 0ZM150.98 0L145.98 0Q145.58 0 145.58-0.35L145.58-0.35 145.53-34.4Q145.53-34.8 145.93-34.8L145.93-34.8 150.43-34.8 158.88-15.1 158.63-34.4Q158.63-34.8 159.08-34.8L159.08-34.8 164.03-34.8Q164.33-34.8 164.33-34.4L164.33-34.4 164.38-0.3Q164.38 0 164.13 0L164.13 0 159.73 0 151.08-18.4 151.43-0.4Q151.43 0 150.98 0L150.98 0ZM174.58 0L168.93 0Q168.73 0 168.73-0.25L168.73-0.25 168.83-34.55Q168.83-34.8 169.03-34.8L169.03-34.8 174.63-34.8Q174.83-34.8 174.83-34.55L174.83-34.55 174.83-22.7 182.68-34.6Q182.83-34.8 183.03-34.8L183.03-34.8 188.78-34.8Q188.98-34.8 188.88-34.6L188.88-34.6 180.23-20.8 189.93-0.2Q190.03 0 189.68 0L189.68 0 183.58 0Q183.33 0 183.28-0.2L183.28-0.2 176.53-14.9 174.78-12.15 174.78-0.25Q174.78 0 174.58 0L174.58 0Z" opacity="1" transform="matrix(1,0,0,1,0,0)" fill="#6f605b" class="wordmark-text-0" data-fill-palette-color="primary" id="text-0"></path></svg></g></svg></g><g transform="matrix(1,0,0,1,0,97.25442720069509)"><svg viewBox="0 0 232.209792 19.170130909629385" height="19.170130909629385" width="232.209792"><g transform="matrix(1,0,0,1,0,0)"><svg width="232.209792" viewBox="1.2200000286102295 -37.54999923706055 593.4800415039062 49" height="19.170130909629385" data-palette-color="#f36527"><path d="M26.98-26.39L26.98-20.04 15.89-20.04 15.89 0 9.47 0 9.47-20.04 1.22-20.04 1.22-26.39 9.47-26.39 9.47-35.01 15.89-35.01 15.89-26.39 26.98-26.39ZM60.5-17.5L60.5 0 54.15 0 54.15-17.5Q54.15-18.75 53.51-19.4 52.88-20.04 51.61-20.04L51.61-20.04 40.16-20.04 40.16-26.39 51.61-26.39Q52.51-26.39 53.51-26.18 54.51-25.98 55.5-25.54 56.49-25.1 57.39-24.4 58.3-23.71 58.98-22.72 59.67-21.73 60.08-20.43 60.5-19.14 60.5-17.5L60.5-17.5ZM37.6-37.55L37.6 0 31.25 0 31.25-37.55 37.6-37.55ZM94.7-17.65L94.7-17.65Q94.7-16.33 94.23-14.81 93.77-13.28 92.73-11.98 91.69-10.67 90.02-9.79 88.35-8.91 85.96-8.91L85.96-8.91 74.51-8.91 74.51-14.94 85.96-14.94Q87.25-14.94 87.96-15.73 88.67-16.53 88.67-17.7L88.67-17.7Q88.67-18.95 87.87-19.65 87.08-20.36 85.96-20.36L85.96-20.36 74.51-20.36Q73.21-20.36 72.5-19.57 71.8-18.77 71.8-17.6L71.8-17.6 71.8-8.74Q71.8-7.47 72.59-6.76 73.38-6.05 74.56-6.05L74.56-6.05 85.96-6.05 85.96 0 74.51 0Q73.19 0 71.66-0.46 70.14-0.93 68.83-1.97 67.52-3 66.65-4.68 65.77-6.35 65.77-8.74L65.77-8.74 65.77-17.65Q65.77-18.97 66.23-20.5 66.69-22.02 67.73-23.33 68.77-24.63 70.44-25.51 72.11-26.39 74.51-26.39L74.51-26.39 85.96-26.39Q87.28-26.39 88.8-25.93 90.33-25.46 91.63-24.43 92.94-23.39 93.82-21.72 94.7-20.04 94.7-17.65ZM126.82-6.35L126.82 0 123.99 0Q122.62 0 121.07-0.46 119.52-0.93 118.18-1.99 116.84-3.05 115.96-4.75 115.08-6.45 115.08-8.91L115.08-8.91 115.08-37.55 121.43-37.55 121.43-8.91Q121.43-7.74 122.16-7.04 122.89-6.35 123.99-6.35L123.99-6.35 126.82-6.35ZM137.34-37.55L137.34-31.81 130.99-31.81 130.99-37.55 137.34-37.55ZM137.34-26.39L137.34 0 130.99 0 130.99-26.39 137.34-26.39ZM172.67-14.65L172.67 0 166.32 0 166.32-14.65Q166.32-15.89 165.89-16.88 165.46-17.87 164.73-18.58 164-19.29 163.01-19.67 162.02-20.04 160.87-20.04L160.87-20.04 149.77-20.04 149.77 0 143.42 0 143.42-23.24Q143.42-23.9 143.66-24.48 143.91-25.05 144.35-25.48 144.78-25.9 145.37-26.15 145.96-26.39 146.62-26.39L146.62-26.39 160.92-26.39Q162.12-26.39 163.45-26.12 164.78-25.85 166.09-25.26 167.39-24.66 168.58-23.74 169.76-22.83 170.68-21.52 171.59-20.21 172.13-18.51 172.67-16.8 172.67-14.65L172.67-14.65ZM194.29-14.4L209.24 0 200.08 0 187.29-12.35Q186.21-13.33 186.29-14.79L186.29-14.79Q186.34-15.48 186.64-16.08 186.95-16.67 187.48-17.09L187.48-17.09 199.08-26.44 209.24-26.44 194.29-14.4ZM184.67-37.55L184.67 0 178.33 0 178.33-37.55 184.67-37.55ZM252.66-26.39L252.66-20.04 241.58-20.04 241.58 0 235.16 0 235.16-20.04 226.91-20.04 226.91-26.39 235.16-26.39 235.16-35.01 241.58-35.01 241.58-26.39 252.66-26.39ZM285.45-17.5L285.45-8.91Q285.45-7.28 285.03-5.97 284.62-4.66 283.93-3.67 283.25-2.69 282.35-1.99 281.44-1.29 280.46-0.85 279.47-0.42 278.45-0.21 277.44 0 276.54 0L276.54 0 265.09 0Q263.77 0 262.21-0.46 260.64-0.93 259.31-1.99 257.98-3.05 257.09-4.75 256.2-6.45 256.2-8.91L256.2-8.91 256.2-17.5Q256.2-19.95 257.09-21.64 257.98-23.34 259.31-24.4 260.64-25.46 262.21-25.93 263.77-26.39 265.09-26.39L265.09-26.39 276.54-26.39Q278.98-26.39 280.69-25.51 282.4-24.63 283.45-23.3 284.5-21.97 284.97-20.41 285.45-18.85 285.45-17.5L285.45-17.5ZM279.1-8.91L279.1-17.46Q279.1-18.77 278.44-19.41 277.78-20.04 276.54-20.04L276.54-20.04 265.14-20.04Q263.87-20.04 263.21-19.4 262.55-18.75 262.55-17.5L262.55-17.5 262.55-8.91Q262.55-7.67 263.21-7.01 263.87-6.35 265.14-6.35L265.14-6.35 276.54-6.35Q277.83-6.35 278.47-7.01 279.1-7.67 279.1-8.91L279.1-8.91ZM336.2-26.39L336.2 2.54Q336.2 4.17 335.79 5.48 335.37 6.79 334.69 7.78 334 8.76 333.1 9.46 332.2 10.16 331.21 10.6 330.22 11.04 329.22 11.24 328.22 11.45 327.31 11.45L327.31 11.45 315.86 11.45 315.86 5.1 327.31 5.1Q328.58 5.1 329.22 4.44 329.85 3.78 329.85 2.54L329.85 2.54 329.85-26.39 336.2-26.39ZM327.31-6.35L327.31 0 315.86 0Q314.5 0 312.95-0.46 311.4-0.93 310.05-1.99 308.71-3.05 307.83-4.75 306.95-6.45 306.95-8.91L306.95-8.91 306.95-26.39 313.3-26.39 313.3-8.91Q313.3-7.67 313.96-7.01 314.62-6.35 315.91-6.35L315.91-6.35 327.31-6.35ZM370.96-17.5L370.96-8.91Q370.96-7.28 370.55-5.97 370.13-4.66 369.45-3.67 368.77-2.69 367.86-1.99 366.96-1.29 365.97-0.85 364.98-0.42 363.97-0.21 362.96 0 362.05 0L362.05 0 350.6 0Q349.28 0 347.72-0.46 346.16-0.93 344.83-1.99 343.5-3.05 342.61-4.75 341.72-6.45 341.72-8.91L341.72-8.91 341.72-17.5Q341.72-19.95 342.61-21.64 343.5-23.34 344.83-24.4 346.16-25.46 347.72-25.93 349.28-26.39 350.6-26.39L350.6-26.39 362.05-26.39Q364.49-26.39 366.2-25.51 367.91-24.63 368.96-23.3 370.01-21.97 370.49-20.41 370.96-18.85 370.96-17.5L370.96-17.5ZM364.62-8.91L364.62-17.46Q364.62-18.77 363.96-19.41 363.3-20.04 362.05-20.04L362.05-20.04 350.65-20.04Q349.38-20.04 348.72-19.4 348.06-18.75 348.06-17.5L348.06-17.5 348.06-8.91Q348.06-7.67 348.72-7.01 349.38-6.35 350.65-6.35L350.65-6.35 362.05-6.35Q363.35-6.35 363.98-7.01 364.62-7.67 364.62-8.91L364.62-8.91ZM405.21-26.39L405.21-3.2Q405.21-2.51 404.97-1.93 404.73-1.34 404.3-0.92 403.87-0.49 403.3-0.24 402.72 0 402.06 0L402.06 0 387.71 0Q386.54 0 385.21-0.27 383.88-0.54 382.58-1.14 381.29-1.73 380.08-2.65 378.87-3.56 377.97-4.87 377.06-6.18 376.52-7.89 375.97-9.59 375.97-11.74L375.97-11.74 375.97-26.39 382.31-26.39 382.31-11.74Q382.31-10.5 382.74-9.51 383.17-8.52 383.9-7.81 384.63-7.1 385.62-6.73 386.61-6.35 387.76-6.35L387.76-6.35 398.87-6.35 398.87-26.39 405.21-26.39ZM434.26-26.39L434.26-20.04 419.98-20.04Q418.69-20.04 418.03-19.4 417.37-18.75 417.37-17.5L417.37-17.5 417.37 0 411.02 0 411.02-17.5Q411.02-19.14 411.44-20.43 411.85-21.73 412.55-22.72 413.24-23.71 414.15-24.4 415.05-25.1 416.04-25.54 417.03-25.98 418.04-26.18 419.05-26.39 419.93-26.39L419.93-26.39 434.26-26.39ZM479.86-6.35L479.86 0 462.65 0Q461.33 0 459.77-0.46 458.21-0.93 456.88-1.99 455.55-3.05 454.66-4.75 453.77-6.45 453.77-8.91L453.77-8.91 453.77-17.5Q453.77-18.41 453.97-19.41 454.18-20.41 454.62-21.4 455.06-22.39 455.76-23.29 456.45-24.19 457.44-24.88 458.43-25.56 459.72-25.98 461.02-26.39 462.65-26.39L462.65-26.39 479.86-26.39 479.86-20.04 462.65-20.04Q461.41-20.04 460.76-19.41 460.11-18.77 460.11-17.46L460.11-17.46 460.11-8.91Q460.11-7.67 460.77-7.01 461.43-6.35 462.7-6.35L462.7-6.35 479.86-6.35ZM514.46-17.5L514.46 0 508.11 0 508.11-17.5Q508.11-18.75 507.47-19.4 506.84-20.04 505.57-20.04L505.57-20.04 494.12-20.04 494.12-26.39 505.57-26.39Q506.47-26.39 507.47-26.18 508.48-25.98 509.46-25.54 510.45-25.1 511.36-24.4 512.26-23.71 512.94-22.72 513.63-21.73 514.04-20.43 514.46-19.14 514.46-17.5L514.46-17.5ZM491.56-37.55L491.56 0 485.21 0 485.21-37.55 491.56-37.55ZM547.51-17.65L547.51-8.74Q547.51-7.42 547.05-5.9 546.58-4.37 545.55-3.06 544.51-1.76 542.84-0.88 541.16 0 538.77 0L538.77 0 527.32 0Q526 0 524.48-0.46 522.95-0.93 521.64-1.97 520.34-3 519.46-4.68 518.58-6.35 518.58-8.74L518.58-8.74Q518.58-10.06 519.04-11.6 519.51-13.13 520.55-14.44 521.58-15.75 523.26-16.63 524.93-17.5 527.32-17.5L527.32-17.5 538.77-17.5 538.77-11.45 527.32-11.45Q526.03-11.45 525.32-10.66 524.61-9.86 524.61-8.69L524.61-8.69Q524.61-7.45 525.43-6.75 526.25-6.05 527.37-6.05L527.37-6.05 538.77-6.05Q540.06-6.05 540.77-6.84 541.48-7.62 541.48-8.79L541.48-8.79 541.48-17.65Q541.48-18.9 540.71-19.63 539.94-20.36 538.77-20.36L538.77-20.36 524.83-20.36 524.83-26.39 538.77-26.39Q540.09-26.39 541.62-25.93 543.14-25.46 544.45-24.43 545.75-23.39 546.63-21.72 547.51-20.04 547.51-17.65L547.51-17.65ZM559.37-37.55L559.37-31.81 553.03-31.81 553.03-37.55 559.37-37.55ZM559.37-26.39L559.37 0 553.03 0 553.03-26.39 559.37-26.39ZM594.7-14.65L594.7 0 588.35 0 588.35-14.65Q588.35-15.89 587.92-16.88 587.5-17.87 586.76-18.58 586.03-19.29 585.04-19.67 584.05-20.04 582.91-20.04L582.91-20.04 571.8-20.04 571.8 0 565.45 0 565.45-23.24Q565.45-23.9 565.69-24.48 565.94-25.05 566.38-25.48 566.82-25.9 567.4-26.15 567.99-26.39 568.65-26.39L568.65-26.39 582.96-26.39Q584.15-26.39 585.48-26.12 586.81-25.85 588.12-25.26 589.43-24.66 590.61-23.74 591.79-22.83 592.71-21.52 593.62-20.21 594.16-18.51 594.7-16.8 594.7-14.65L594.7-14.65Z" opacity="1" transform="matrix(1,0,0,1,0,0)" fill="#f36527" class="slogan-text-1" data-fill-palette-color="secondary" id="text-1"></path></svg></g></svg></g></svg></g></svg></g><g><svg viewBox="0 0 184.24013759999997 184.24013759999997" height="184.24013759999997" width="184.24013759999997"><g><svg xmlns:dc="http://purl.org/dc/elements/1.1/" xmlns:cc="http://creativecommons.org/ns#" xmlns:rdf="http://www.w3.org/1999/02/22-rdf-syntax-ns#" xmlns:svg="http://www.w3.org/2000/svg" xmlns="http://www.w3.org/2000/svg" xmlns:sodipodi="http://sodipodi.sourceforge.net/DTD/sodipodi-0.dtd" xmlns:inkscape="http://www.inkscape.org/namespaces/inkscape" version="1.1" x="0" y="0" viewBox="4.951539516448975 5.175851345062256 91.49439239501953 91.49439239501953" enable-background="new 0 0 100 52" xml:space="preserve" height="184.24013759999997" width="184.24013759999997" class="icon-icon-0" data-fill-palette-color="accent" id="icon-0"><g transform="matrix(0.6136733,-0.6136733,0.6136733,0.6136733,4.0598725,65.6509)" fill="#f36527" data-fill-palette-color="accent"><path d="M47.807 33.138c0.008-0.009 0.016-0.019 0.024-0.026-0.009 0.007-0.018 0.015-0.026 0.023 0 0.001 0.001 0.002 0.002 0.003z" fill="none"></path><path d="M53.048 49.8c-0.274-0.071-0.545-0.152-0.815-0.232-0.002 0.001-0.005 0.003-0.007 0.003 0.259 0.077 0.534 0.155 0.822 0.229z" fill="none"></path><path d="M36.33 35.501h-0.004c0.204 0.522 0.496 1.114 0.783 1.651h0.013c-0.284-0.54-0.548-1.09-0.792-1.651z" fill="none"></path><path d="M37.108 37.152c0.291 0.544 0.577 1.029 0.758 1.332-0.263-0.436-0.508-0.882-0.746-1.332h-0.012z" fill="#f36527" data-fill-palette-color="accent"></path><path d="M38.062 38.804h0.006c-0.048-0.079-0.1-0.152-0.147-0.231 0.087 0.144 0.141 0.231 0.141 0.231z" fill="#f36527" data-fill-palette-color="accent"></path><path d="M51.812 49.445c-0.631-0.197-1.249-0.424-1.856-0.669-0.003 0.002-0.007 0.003-0.009 0.004 0.06 0.025 0.781 0.324 1.865 0.665z" fill="#f36527" data-fill-palette-color="accent"></path><path d="M52.226 49.57c0.002 0 0.005-0.002 0.007-0.003-0.106-0.03-0.213-0.057-0.318-0.091 0.101 0.033 0.205 0.065 0.311 0.094z" fill="#f36527" data-fill-palette-color="accent"></path><path d="M74.458 0.955H59.321c-1.307 0-2.591 0.1-3.845 0.293-0.273 0.042-0.541 0.101-0.811 0.151 4.646 2.666 8.469 6.605 10.987 11.343h1.238 8.346c7.322 0 13.257 5.937 13.257 13.259 0 7.321-5.936 13.258-13.257 13.258H65.72 63.762 61.857 61.851 58.68c-3.305 0-6.324-1.212-8.646-3.212 0 0-0.003 0.003-0.003 0.003 0-0.002-0.001-0.002-0.002-0.003-0.494-0.414-0.886-0.802-1.206-1.148-0.7-0.764-1.011-1.303-1.011-1.303 0.001-0.002 0.002-0.002 0.002-0.003-0.001-0.001-0.002-0.002-0.002-0.003-1.505-2.15-2.389-4.766-2.389-7.589 0-2.746 0.834-5.296 2.263-7.413 0.041-0.06 0.086-0.117 0.127-0.176-1.736-1.473-3.978-2.367-6.429-2.367h-5.041c-1.325 3.052-2.067 6.416-2.067 9.956 0 3.538 0.737 6.903 2.061 9.955 0.244 0.561 0.509 1.111 0.792 1.651 0.237 0.45 0.482 0.896 0.746 1.332 0.02 0.033 0.036 0.059 0.054 0.088 0.047 0.079 0.099 0.152 0.147 0.231 2.792 4.463 6.948 7.98 11.888 9.973 0.608 0.245 1.226 0.472 1.856 0.669 0.034 0.011 0.068 0.022 0.103 0.031 0.105 0.034 0.212 0.061 0.318 0.091 0.27 0.08 0.541 0.161 0.815 0.232 0.004 0 0.006 0.002 0.01 0.003 2 0.513 4.096 0.787 6.254 0.787H74.457C88.289 51.044 99.501 39.831 99.501 26 99.502 12.169 88.29 0.955 74.458 0.955z" fill="#f36527" data-fill-palette-color="accent"></path><path d="M25.542 51.045h15.137c1.308 0 2.592-0.101 3.846-0.294 0.273-0.042 0.542-0.1 0.811-0.151C40.69 47.935 36.866 43.996 34.349 39.258H33.11 24.764c-7.322 0-13.257-5.936-13.257-13.259 0-7.322 5.935-13.257 13.257-13.257h9.516 1.957 1.905 0.007 3.17c3.304 0 6.323 1.212 8.645 3.212l0.002-0.003c0.001 0.001 0.001 0.002 0.002 0.003 0.495 0.413 0.887 0.801 1.206 1.148 0.701 0.762 1.011 1.302 1.011 1.302 0 0.001-0.001 0.002-0.002 0.003 0.001 0 0.002 0.001 0.003 0.003 1.505 2.15 2.39 4.766 2.39 7.588 0 2.746-0.835 5.297-2.264 7.412-0.041 0.062-0.085 0.118-0.127 0.176 1.736 1.474 3.979 2.369 6.429 2.369h5.042c1.324-3.053 2.065-6.417 2.065-9.957 0-3.539-0.737-6.903-2.061-9.955C63.416 15.482 63.151 14.932 62.868 14.392 62.631 13.941 62.386 13.494 62.122 13.06 62.102 13.027 62.086 13 62.069 12.971 62.021 12.893 61.97 12.818 61.922 12.741 59.13 8.278 54.973 4.76 50.034 2.768 49.426 2.523 48.808 2.297 48.178 2.098 48.144 2.087 48.11 2.077 48.075 2.066 47.97 2.034 47.863 2.007 47.757 1.977 47.487 1.896 47.216 1.815 46.941 1.745 46.937 1.744 46.935 1.744 46.932 1.743 44.932 1.228 42.837 0.955 40.677 0.955H25.542c-13.832 0-25.044 11.212-25.044 25.044 0 13.833 11.212 25.046 25.044 25.046z" fill="#f36527" data-fill-palette-color="accent"></path><path d="M53.058 49.803C53.055 49.802 53.052 49.8 53.048 49.8c0.004 0 0.007 0.002 0.01 0.003z" fill="#f36527" data-fill-palette-color="accent"></path><path d="M51.812 49.445c0.034 0.011 0.068 0.022 0.103 0.031-0.034-0.008-0.068-0.02-0.103-0.031z" fill="#f36527" data-fill-palette-color="accent"></path><path d="M47.805 33.141c0 0 0.311 0.539 1.011 1.303 0.005-0.006 0.01-0.012 0.016-0.015-0.369-0.407-0.709-0.84-1.025-1.291 0 0.001-0.001 0.001-0.002 0.003z" fill="#f36527" data-fill-palette-color="accent"></path><path d="M37.92 38.572c-0.018-0.029-0.034-0.055-0.054-0.088 0.019 0.03 0.036 0.058 0.054 0.088z" fill="#f36527" data-fill-palette-color="accent"></path><path d="M48.832 34.429c-0.006 0.003-0.011 0.009-0.016 0.015 0.319 0.347 0.711 0.734 1.206 1.148 0.001-0.002 0.002-0.003 0.002-0.003-0.42-0.362-0.82-0.749-1.192-1.16z" fill="#f36527" data-fill-palette-color="accent"></path><path d="M50.027 35.592c0.001-0.003 0.004-0.006 0.012-0.015-0.004 0.004-0.01 0.008-0.015 0.012 0.001 0 0.002 0.001 0.003 0.003z" fill="#f36527" data-fill-palette-color="accent"></path><rect height="0.0040000002" width="0.0040000002" y="35.59" x="50.021999" fill="#f36527" data-fill-palette-color="accent"></rect></g></svg></g></svg></g></svg></g><defs></defs></svg><rect width="395.5199999999999" height="121.58019219410352" fill="none" stroke="none" visibility="hidden"></rect></g></svg></g></svg>